<svg width="32" height="32" viewBox="0 0 32 32" fill="none" xmlns="http://www.w3.org/2000/svg">
<rect width="32" height="32" rx="6.4" fill="#172326"/>
<path d="M5.87224 7.85756C5.74292 7.54603 5.97186 7.20312 6.30916 7.20312H18.2518C18.443 7.20312 18.6154 7.31823 18.6887 7.49483L20.9099 12.8459C20.9581 12.962 20.9581 13.0925 20.9099 13.2087L18.6887 18.5597C18.6154 18.7363 18.443 18.8514 18.2518 18.8514H6.30916C5.97186 18.8514 5.74292 18.5085 5.87224 18.197L7.94288 13.2087C7.99107 13.0925 7.99107 12.962 7.94288 12.8459L5.87224 7.85756Z" fill="#87ACB6"/>
<path d="M10.4875 13.5685C10.3582 13.257 10.5871 12.9141 10.9244 12.9141H22.867C23.0582 12.9141 23.2306 13.0292 23.3039 13.2058L25.5251 18.5569C25.5733 18.673 25.5733 18.8035 25.5251 18.9196L23.3039 24.2707C23.2306 24.4473 23.0582 24.5624 22.867 24.5624H10.9244C10.5871 24.5624 10.3582 24.2195 10.4875 23.908L12.5581 18.9196C12.6063 18.8035 12.6063 18.673 12.5581 18.5569L10.4875 13.5685Z" fill="#568793"/>
<path fill-rule="evenodd" clip-rule="evenodd" d="M6.3095 7.20312C5.9722 7.20312 5.74326 7.54603 5.87257 7.85756L7.94322 12.8459C7.99141 12.962 7.99141 13.0925 7.94322 13.2087L5.87257 18.197C5.74326 18.5085 5.9722 18.8514 6.3095 18.8514H12.5816C12.6052 18.7544 12.5976 18.6518 12.5588 18.5584L10.4882 13.5701C10.3589 13.2585 10.5878 12.9156 10.9251 12.9156H20.933C20.9273 12.892 20.9197 12.8687 20.9102 12.8459L18.689 7.49483C18.6157 7.31823 18.4433 7.20312 18.2521 7.20312H6.3095Z" fill="#87ACB6"/>
<path fill-rule="evenodd" clip-rule="evenodd" d="M20.9326 12.9141C20.9562 13.0111 20.9486 13.1137 20.9098 13.2071L18.6886 18.5582C18.6153 18.7348 18.4429 18.8499 18.2517 18.8499H12.5812C12.6048 18.7529 12.5972 18.6502 12.5585 18.5569L10.4878 13.5685C10.3585 13.257 10.5874 12.9141 10.9247 12.9141H20.9326Z" fill="#2E5B69"/>
</svg>
